<svg xmlns="http://www.w3.org/2000/svg" viewBox="0 0 512 512" role="img" aria-label="PinShift">
  <defs>
    <linearGradient id="bg" x1="96" x2="416" y1="64" y2="448" gradientUnits="userSpaceOnUse">
      <stop offset="0" stop-color="#172421"/>
      <stop offset="1" stop-color="#0b1211"/>
    </linearGradient>
    <radialGradient id="glow" cx="256" cy="254" r="190" gradientUnits="userSpaceOnUse">
      <stop offset="0" stop-color="#49d6c9" stop-opacity=".34"/>
      <stop offset=".55" stop-color="#49d6c9" stop-opacity=".08"/>
      <stop offset="1" stop-color="#49d6c9" stop-opacity="0"/>
    </radialGradient>
  </defs>
  <rect width="512" height="512" rx="112" fill="url(#bg)"/>
  <circle cx="256" cy="256" r="208" fill="url(#glow)"/>
  <circle cx="256" cy="256" r="122" fill="none" stroke="#113f3b" stroke-width="22"/>
  <circle cx="256" cy="256" r="86" fill="#0f7971"/>
  <circle cx="256" cy="256" r="52" fill="#f6fffd"/>
  <path d="M256 104c-69 0-125 56-125 125 0 85 125 179 125 179s125-94 125-179c0-69-56-125-125-125Zm0 194a69 69 0 1 1 0-138 69 69 0 0 1 0 138Z" fill="#40d7c9"/>
  <circle cx="256" cy="229" r="35" fill="#101a18"/>
</svg>
