<svg xmlns="http://www.w3.org/2000/svg" viewBox="0 0 512 512" role="img" aria-label="PinShift">
  <defs>
    <linearGradient id="bg" x1="80" x2="432" y1="64" y2="448" gradientUnits="userSpaceOnUse">
      <stop offset="0" stop-color="#f8fffd"/>
      <stop offset="1" stop-color="#d9f5f1"/>
    </linearGradient>
    <linearGradient id="tileA" x1="84" x2="236" y1="96" y2="416" gradientUnits="userSpaceOnUse">
      <stop offset="0" stop-color="#dff7f4"/>
      <stop offset="1" stop-color="#9fe6dd"/>
    </linearGradient>
    <linearGradient id="tileB" x1="236" x2="430" y1="84" y2="414" gradientUnits="userSpaceOnUse">
      <stop offset="0" stop-color="#ffffff"/>
      <stop offset="1" stop-color="#c6eee8"/>
    </linearGradient>
    <linearGradient id="pin" x1="175" x2="337" y1="120" y2="382" gradientUnits="userSpaceOnUse">
      <stop offset="0" stop-color="#46dccf"/>
      <stop offset="1" stop-color="#0d746e"/>
    </linearGradient>
  </defs>
  <rect width="512" height="512" rx="112" fill="url(#bg)"/>
  <path d="M84 165c0-23 19-42 42-42h112v266H126c-23 0-42-19-42-42V165Z" fill="url(#tileA)"/>
  <path d="M238 123h148c23 0 42 19 42 42v69H238V123Z" fill="url(#tileB)"/>
  <path d="M238 234h190v113c0 23-19 42-42 42H238V234Z" fill="#ecfbf8"/>
  <path d="M116 214h280" stroke="#75cfc5" stroke-width="14" stroke-linecap="round" opacity=".9"/>
  <path d="M238 133v246" stroke="#75cfc5" stroke-width="14" stroke-linecap="round" opacity=".9"/>
  <path d="M140 332c58-45 122-48 190-10" fill="none" stroke="#b8eee7" stroke-width="18" stroke-linecap="round"/>
  <ellipse cx="256" cy="264" rx="136" ry="82" fill="none" stroke="#143330" stroke-width="18" opacity=".88" transform="rotate(-16 256 264)"/>
  <path d="M256 116c-61 0-111 50-111 111 0 75 111 159 111 159s111-84 111-159c0-61-50-111-111-111Zm0 152a42 42 0 1 1 0-84 42 42 0 0 1 0 84Z" fill="url(#pin)"/>
  <circle cx="256" cy="226" r="25" fill="#ffffff"/>
</svg>
